<svg xmlns="http://www.w3.org/2000/svg" viewBox="0 0 1600 900" width="1600" height="900" role="img" aria-label="DTCA - giải pháp tự động hóa và SCADA">
  <defs>
    <linearGradient id="heroBg" x1="0" y1="0" x2="1" y2="1">
      <stop offset="0%" stop-color="#0b1a2e" />
      <stop offset="100%" stop-color="#21456e" />
    </linearGradient>
  </defs>
  <rect width="1600" height="900" fill="url(#heroBg)" />
  <g opacity="0.35" stroke="#5c8fc0" stroke-width="1.5">
    <line x1="0" y1="200" x2="1600" y2="200" />
    <line x1="0" y1="400" x2="1600" y2="400" />
    <line x1="0" y1="600" x2="1600" y2="600" />
    <line x1="0" y1="800" x2="1600" y2="800" />
    <line x1="300" y1="0" x2="300" y2="900" />
    <line x1="700" y1="0" x2="700" y2="900" />
    <line x1="1100" y1="0" x2="1100" y2="900" />
    <line x1="1500" y1="0" x2="1500" y2="900" />
  </g>
  <g stroke="#F5B301" stroke-width="4" fill="none" opacity="0.9">
    <polyline points="150,780 150,300 320,300 320,150 500,150" />
    <polyline points="1450,780 1450,320 1280,320 1280,180 1080,180" />
  </g>
  <g fill="#3B82F6" opacity="0.8">
    <circle cx="150" cy="780" r="10" />
    <circle cx="320" cy="300" r="10" />
    <circle cx="500" cy="150" r="10" />
    <circle cx="1450" cy="780" r="10" />
    <circle cx="1280" cy="320" r="10" />
    <circle cx="1080" cy="180" r="10" />
  </g>
  <g transform="translate(700,380)">
    <rect x="0" y="0" width="220" height="280" rx="14" fill="#123163" stroke="#93b6d8" stroke-width="4" />
    <rect x="24" y="28" width="172" height="70" rx="6" fill="#0b1a2e" />
    <circle cx="55" cy="63" r="12" fill="#22A559" />
    <circle cx="95" cy="63" r="12" fill="#F5B301" />
    <circle cx="135" cy="63" r="12" fill="#E23744" />
    <rect x="24" y="112" width="76" height="140" rx="6" fill="#0b1a2e" />
    <rect x="120" y="112" width="76" height="140" rx="6" fill="#0b1a2e" />
    <rect x="36" y="126" width="52" height="10" fill="#3B82F6" />
    <rect x="36" y="148" width="52" height="10" fill="#3B82F6" opacity="0.7" />
    <rect x="36" y="170" width="38" height="10" fill="#3B82F6" opacity="0.5" />
    <rect x="132" y="126" width="52" height="10" fill="#F5B301" />
    <rect x="132" y="148" width="52" height="10" fill="#F5B301" opacity="0.7" />
    <rect x="132" y="170" width="38" height="10" fill="#F5B301" opacity="0.5" />
  </g>
</svg>
