<svg xmlns="http://www.w3.org/2000/svg" viewBox="0 0 800 600" width="800" height="600" role="img" aria-label="Ảnh minh họa dự án DTCA">
  <defs>
    <linearGradient id="bg" x1="0" y1="0" x2="1" y2="1">
      <stop offset="0%" stop-color="#14294480" />
      <stop offset="100%" stop-color="#0b1a2e" />
    </linearGradient>
  </defs>
  <rect width="800" height="600" fill="#142944" />
  <rect width="800" height="600" fill="url(#bg)" />
  <g opacity="0.5" stroke="#3B82F6" stroke-width="2">
    <line x1="0" y1="150" x2="800" y2="150" />
    <line x1="0" y1="300" x2="800" y2="300" />
    <line x1="0" y1="450" x2="800" y2="450" />
    <line x1="200" y1="0" x2="200" y2="600" />
    <line x1="400" y1="0" x2="400" y2="600" />
    <line x1="600" y1="0" x2="600" y2="600" />
  </g>
  <g transform="translate(300,220)">
    <rect x="0" y="0" width="200" height="240" rx="10" fill="#1a3557" stroke="#5c8fc0" stroke-width="3" />
    <rect x="20" y="24" width="160" height="60" rx="4" fill="#0b1a2e" />
    <circle cx="45" cy="54" r="10" fill="#22A559" />
    <circle cx="80" cy="54" r="10" fill="#F5B301" />
    <circle cx="115" cy="54" r="10" fill="#E23744" />
    <rect x="20" y="100" width="70" height="120" rx="4" fill="#0b1a2e" />
    <rect x="110" y="100" width="70" height="120" rx="4" fill="#0b1a2e" />
    <rect x="30" y="110" width="50" height="8" fill="#3B82F6" />
    <rect x="30" y="128" width="50" height="8" fill="#3B82F6" opacity="0.6" />
    <rect x="30" y="146" width="35" height="8" fill="#3B82F6" opacity="0.4" />
    <rect x="120" y="110" width="50" height="8" fill="#F5B301" />
    <rect x="120" y="128" width="50" height="8" fill="#F5B301" opacity="0.6" />
    <rect x="120" y="146" width="35" height="8" fill="#F5B301" opacity="0.4" />
  </g>
  <text x="400" y="540" text-anchor="middle" font-family="Arial, sans-serif" font-size="22" font-weight="700" fill="#e2eaf5">DTCA — Tự động hóa &amp; SCADA</text>
</svg>
